<?xml version="1.0" standalone="no"?>
<!DOCTYPE svg PUBLIC "-//W3C//DTD SVG 20010904//EN"
 "http://www.w3.org/TR/2001/REC-SVG-20010904/DTD/svg10.dtd">
<svg version="1.0" xmlns="http://www.w3.org/2000/svg"
 width="511.000000pt" height="512.000000pt" viewBox="0 0 511.000000 512.000000"
 preserveAspectRatio="xMidYMid meet">

<g transform="translate(0.000000,512.000000) scale(0.100000,-0.100000)"
fill="#000000" stroke="none">
<path d="M0 2560 l0 -2560 2555 0 2555 0 0 2560 0 2560 -2555 0 -2555 0 0
-2560z m2960 2435 c142 -37 216 -78 257 -142 18 -29 33 -59 33 -68 0 -8 -16
-63 -35 -121 -19 -59 -38 -122 -41 -141 -6 -30 -10 -34 -28 -28 -34 10 -286
65 -346 75 -96 15 -235 42 -238 45 -2 2 11 68 28 147 17 78 34 162 37 185 5
40 7 42 57 56 77 23 168 20 276 -8z m-310 -446 c25 -5 81 -15 125 -22 129 -22
316 -67 347 -83 21 -11 28 -22 28 -44 0 -16 -4 -31 -8 -34 -5 -3 -42 5 -83 18
-41 13 -105 29 -144 36 -38 7 -101 22 -140 32 -38 10 -108 24 -155 30 -47 6
-86 12 -88 13 -2 2 0 20 4 40 6 35 8 37 38 30 17 -4 51 -11 76 -16z m43 -125
c20 -8 48 -14 60 -14 13 0 27 -4 32 -9 6 -6 42 -15 80 -20 39 -6 114 -23 168
-37 86 -24 97 -29 97 -49 0 -38 -30 -196 -50 -265 -16 -57 -32 -135 -71 -355
-5 -33 -14 -76 -19 -95 -4 -19 -13 -66 -20 -105 -7 -38 -23 -122 -36 -185 -12
-63 -26 -151 -29 -195 -10 -137 -31 -262 -90 -530 -32 -148 -53 -285 -65 -430
-5 -66 -14 -160 -19 -210 -6 -49 -15 -134 -20 -188 -11 -103 -26 -197 -65
-417 -41 -227 -47 -256 -54 -267 -11 -17 -275 3 -352 27 -36 11 -79 20 -97 20
-81 0 -106 41 -84 137 31 129 58 320 66 463 3 52 11 138 19 190 8 52 22 145
31 205 9 61 27 164 40 230 13 66 28 163 35 215 6 52 17 133 25 180 7 47 17
114 20 150 4 36 15 95 25 132 10 37 24 111 30 165 22 190 51 389 65 448 15 62
25 136 50 365 8 74 22 191 31 260 8 69 17 144 20 167 l5 42 67 -5 c37 -3 84
-12 105 -20z m-553 -3364 c25 -5 66 -16 93 -25 27 -9 103 -19 177 -24 71 -4
132 -10 136 -14 4 -3 -17 -68 -46 -144 -29 -76 -63 -166 -76 -200 -12 -35 -44
-108 -70 -163 -38 -81 -51 -99 -65 -95 -10 4 -21 -1 -26 -9 -7 -13 -15 -14
-47 -5 -29 8 -41 8 -46 -1 -10 -16 -15 14 -30 160 -7 63 -21 158 -32 210 -12
52 -24 136 -28 185 -4 50 -11 103 -15 119 -7 26 -6 28 11 21 10 -4 39 -11 64
-15z"/>
<path d="M2577 4303 c-4 -3 -7 -13 -7 -21 0 -11 8 -13 34 -8 20 4 37 2 41 -4
12 -20 35 -10 35 15 0 23 -3 25 -48 25 -27 0 -52 -3 -55 -7z"/>
<path d="M2913 4198 c-13 -6 -23 -18 -23 -25 0 -12 9 -13 40 -8 33 6 40 4 40
-9 0 -9 8 -16 20 -16 26 0 27 31 2 53 -21 19 -47 21 -79 5z"/>
<path d="M2580 4175 c0 -31 26 -43 47 -22 21 21 9 47 -22 47 -20 0 -25 -5 -25
-25z"/>
<path d="M2704 4153 c-3 -10 -12 -35 -20 -56 -8 -20 -14 -60 -14 -87 l0 -50
41 0 c37 0 41 3 55 38 8 20 22 51 30 69 8 17 17 46 21 64 15 78 -51 -11 -77
-103 -6 -22 -17 -38 -25 -38 -19 0 -19 24 0 86 8 27 15 59 15 72 0 26 -18 30
-26 5z"/>
<path d="M2902 4073 c4 -35 43 -45 53 -14 9 28 -1 41 -31 41 -22 0 -25 -4 -22
-27z"/>
<path d="M2540 3965 c0 -61 75 -156 136 -171 51 -13 159 2 192 26 42 31 71 85
54 102 -11 11 -21 4 -55 -35 -36 -40 -49 -48 -89 -53 -26 -4 -58 -4 -73 0 -37
9 -99 69 -120 116 -20 45 -45 53 -45 15z"/>
</g>
</svg>
